# xmcd CD database file
#
# Track frame offsets:
#	150
#	17238
#	47418
#	79430
#	112956
#	139088
#
# Disc length: 2255 seconds
#
# Revision: 0
# Processed by: cddbd v1.5PL3 Copyright (c) Steve Scherf et al.
# Submitted via: CDex 1.50
#
DISCID=4708cd06
DTITLE=DJ Tatana - Words [CD-Single)
DYEAR=2001
DGENRE=New Age
TTITLE0=Words (Radio edit)
TTITLE1=Words (DJ Tatana sirup mix)
TTITLE2=Words (Andy Prinz vocal mix)
TTITLE3=Words (DJ Energy mix)
TTITLE4=Words (Max B. Grant remix)
TTITLE5=Words (Progressive gate mix)
EXTD=YEAR: 2001
EXTT0=
EXTT1=
EXTT2=
EXTT3=
EXTT4=
EXTT5=
PLAYORDER=
